<svg width="32" height="33" viewBox="0 0 32 33" fill="none" xmlns="http://www.w3.org/2000/svg">
<path d="M25.7076 24.7925C25.8005 24.8854 25.8742 24.9957 25.9245 25.1171C25.9747 25.2385 26.0006 25.3686 26.0006 25.5C26.0006 25.6314 25.9747 25.7615 25.9245 25.8829C25.8742 26.0043 25.8005 26.1146 25.7076 26.2075C25.6147 26.3004 25.5044 26.3741 25.383 26.4244C25.2616 26.4747 25.1315 26.5006 25.0001 26.5006C24.8687 26.5006 24.7386 26.4747 24.6172 26.4244C24.4958 26.3741 24.3855 26.3004 24.2926 26.2075L16.0001 17.9137L7.70757 26.2075C7.51993 26.3951 7.26543 26.5006 7.00007 26.5006C6.7347 26.5006 6.48021 26.3951 6.29257 26.2075C6.10493 26.0199 5.99951 25.7654 5.99951 25.5C5.99951 25.2346 6.10493 24.9801 6.29257 24.7925L14.5863 16.5L6.29257 8.2075C6.10493 8.01986 5.99951 7.76536 5.99951 7.5C5.99951 7.23464 6.10493 6.98014 6.29257 6.7925C6.48021 6.60486 6.7347 6.49944 7.00007 6.49944C7.26543 6.49944 7.51993 6.60486 7.70757 6.7925L16.0001 15.0862L24.2926 6.7925C24.4802 6.60486 24.7347 6.49944 25.0001 6.49944C25.2654 6.49944 25.5199 6.60486 25.7076 6.7925C25.8952 6.98014 26.0006 7.23464 26.0006 7.5C26.0006 7.76536 25.8952 8.01986 25.7076 8.2075L17.4138 16.5L25.7076 24.7925Z" fill="white"/>
</svg>
