<svg width="50" height="50" viewBox="0 0 50 50" fill="none" xmlns="http://www.w3.org/2000/svg">
<mask id="mask0_67_269" style="mask-type:alpha" maskUnits="userSpaceOnUse" x="0" y="0" width="50" height="50">
<rect width="50" height="50" fill="#D9D9D9"/>
</mask>
<g mask="url(#mask0_67_269)">
<path d="M14.5834 41.6667C12.8473 41.6667 11.3716 41.0591 10.1563 39.8438C8.94105 38.6285 8.33341 37.1528 8.33341 35.4167H3.12508L4.06258 31.25H9.948C10.5383 30.5903 11.2327 30.0782 12.0313 29.7136C12.8299 29.349 13.6806 29.1667 14.5834 29.1667C15.4862 29.1667 16.3369 29.349 17.1355 29.7136C17.9341 30.0782 18.6286 30.5903 19.2188 31.25H27.9167L32.2917 12.5H9.47925L9.68758 11.6146C9.89592 10.6424 10.3733 9.85247 11.1199 9.24483C11.8664 8.63719 12.7431 8.33337 13.7501 8.33337H37.5001L35.573 16.6667H41.6667L47.9167 25L45.8334 35.4167H41.6667C41.6667 37.1528 41.0591 38.6285 39.8438 39.8438C38.6286 41.0591 37.1529 41.6667 35.4167 41.6667C33.6806 41.6667 32.2049 41.0591 30.9897 39.8438C29.7744 38.6285 29.1667 37.1528 29.1667 35.4167H20.8334C20.8334 37.1528 20.2258 38.6285 19.0105 39.8438C17.7952 41.0591 16.3195 41.6667 14.5834 41.6667ZM33.1772 27.0834H43.2292L43.4376 25.9896L39.5834 20.8334H34.6355L33.1772 27.0834ZM32.1876 12.8646L32.2917 12.5L27.9167 31.25L28.0209 30.8855L29.7917 23.2813L32.1876 12.8646ZM1.04175 27.7605L2.08341 23.5938H13.5417L12.5001 27.7605H1.04175ZM5.20841 20.1563L6.25008 15.9896H19.7917L18.7501 20.1563H5.20841ZM14.5834 37.5C15.1737 37.5 15.6685 37.3004 16.0678 36.9011C16.4671 36.5018 16.6667 36.007 16.6667 35.4167C16.6667 34.8264 16.4671 34.3316 16.0678 33.9323C15.6685 33.533 15.1737 33.3334 14.5834 33.3334C13.9931 33.3334 13.4983 33.533 13.099 33.9323C12.6997 34.3316 12.5001 34.8264 12.5001 35.4167C12.5001 36.007 12.6997 36.5018 13.099 36.9011C13.4983 37.3004 13.9931 37.5 14.5834 37.5ZM35.4167 37.5C36.007 37.5 36.5018 37.3004 36.9011 36.9011C37.3004 36.5018 37.5001 36.007 37.5001 35.4167C37.5001 34.8264 37.3004 34.3316 36.9011 33.9323C36.5018 33.533 36.007 33.3334 35.4167 33.3334C34.8265 33.3334 34.3317 33.533 33.9324 33.9323C33.5331 34.3316 33.3334 34.8264 33.3334 35.4167C33.3334 36.007 33.5331 36.5018 33.9324 36.9011C34.3317 37.3004 34.8265 37.5 35.4167 37.5Z" fill="white"/>
</g>
</svg>
