<svg width="50" height="50" viewBox="0 0 50 50" fill="none" xmlns="http://www.w3.org/2000/svg">
<mask id="mask0_67_263" style="mask-type:alpha" maskUnits="userSpaceOnUse" x="0" y="0" width="50" height="50">
<rect width="50" height="50" fill="#D9D9D9"/>
</mask>
<g mask="url(#mask0_67_263)">
<path d="M18.7499 27.0833H22.9166V21.3541H27.0833V27.0833H31.2499V17.1875L24.9999 13.0208L18.7499 17.1875V27.0833ZM24.9999 40.3125C29.236 36.4236 32.3784 32.8906 34.427 29.7135C36.4756 26.5364 37.4999 23.7152 37.4999 21.25C37.4999 17.4652 36.2933 14.3663 33.8801 11.9531C31.4669 9.53989 28.5069 8.33329 24.9999 8.33329C21.493 8.33329 18.5329 9.53989 16.1197 11.9531C13.7065 14.3663 12.4999 17.4652 12.4999 21.25C12.4999 23.7152 13.5242 26.5364 15.5728 29.7135C17.6214 32.8906 20.7638 36.4236 24.9999 40.3125ZM24.9999 45.8333C19.4096 41.0763 15.2343 36.6579 12.4739 32.5781C9.71346 28.4982 8.33325 24.7222 8.33325 21.25C8.33325 16.0416 10.0086 11.8923 13.3593 8.80204C16.71 5.71177 20.5902 4.16663 24.9999 4.16663C29.4096 4.16663 33.2898 5.71177 36.6405 8.80204C39.9912 11.8923 41.6666 16.0416 41.6666 21.25C41.6666 24.7222 40.2864 28.4982 37.526 32.5781C34.7655 36.6579 30.5902 41.0763 24.9999 45.8333Z" fill="white"/>
</g>
</svg>
