<svg width="32" height="28" viewBox="0 0 32 28" fill="none" xmlns="http://www.w3.org/2000/svg">
<path d="M31.4 3.7613C31 2.23639 30 1.14717 28.6 0.711478C24.4 0.275789 20.2 -0.159901 16 0.0579437C11.8 0.0579437 7.6 0.275789 3.4 0.711478C2.2 1.14717 1 2.45424 0.6 3.7613C0.2 7.24682 0 10.5145 0 14C0 17.4855 0.2 20.7532 0.6 24.2387C1 25.7636 2 26.8528 3.4 27.2885C7.6 27.7242 11.8 28.1599 16 27.9421C20.2 27.9421 24.4 27.7242 28.6 27.2885C30 26.8528 31 25.7636 31.4 24.2387C31.8 20.971 32 17.4855 32 14C32 10.5145 31.8 7.24682 31.4 3.7613ZM12 20.5353V7.46466L22.4 14L12 20.5353Z" fill="white"/>
</svg>
